<svg xmlns="http://www.w3.org/2000/svg" width="79.238" height="18.187" viewBox="0 0 79.238 18.187">
  <g id="Group_4820" data-name="Group 4820" transform="translate(7.376 0.8)">
    <path id="Path_5663" data-name="Path 5663" d="M2367.345,33.284v.958a2.787,2.787,0,0,1-1.75,2.616,2.845,2.845,0,0,1-1.094.212,3.925,3.925,0,0,1-1.084-.153,2.713,2.713,0,0,1-.954-.483,2.457,2.457,0,0,1-.678-.85,2.769,2.769,0,0,1-.261-1.254,1.9,1.9,0,0,1,.164-.794,1.957,1.957,0,0,1,.441-.631,2,2,0,0,1,.648-.416,2.081,2.081,0,0,1,.781-.149V29.512h5.672v.943h-1.885v1.886h.423a4.506,4.506,0,0,1,.538.033,2.754,2.754,0,0,1,.545.123,2.112,2.112,0,0,1,.508.248,1.544,1.544,0,0,1,.419.416,2.132,2.132,0,0,1,.287.62,3.009,3.009,0,0,1,.108.854,4.78,4.78,0,0,1-.269,1.6,3.57,3.57,0,0,1-.846,1.351,4.133,4.133,0,0,1-1.5.935,6.28,6.28,0,0,1-2.222.349h-1.292a3.036,3.036,0,0,0-.924.119,1.443,1.443,0,0,0-.579.326,1.118,1.118,0,0,0-.3.49,2.123,2.123,0,0,0-.085.617v.334h-.943v-.564a2.817,2.817,0,0,1,.137-.88,1.748,1.748,0,0,1,.46-.72,2.238,2.238,0,0,1,.854-.486,4.2,4.2,0,0,1,1.325-.179h1.344a5.683,5.683,0,0,0,1.605-.211,3.5,3.5,0,0,0,1.226-.624,2.749,2.749,0,0,0,.783-1.025,3.421,3.421,0,0,0,.275-1.414,1.482,1.482,0,0,0-.142-.7,1.114,1.114,0,0,0-.359-.416,1.3,1.3,0,0,0-.479-.2,2.539,2.539,0,0,0-.5-.052Zm-2.844,2.843a1.866,1.866,0,0,0,1.374-.579,1.882,1.882,0,0,0,.378-.6,1.906,1.906,0,0,0,.134-.7v-.958H2363.7a1.416,1.416,0,0,0-.456.074,1.3,1.3,0,0,0-.393.215,1.072,1.072,0,0,0-.278.339.948.948,0,0,0-.1.449,1.61,1.61,0,0,0,.654,1.351,1.931,1.931,0,0,0,.653.315A2.724,2.724,0,0,0,2364.5,36.127Zm1.886-5.672H2364.5v1.886h1.886Zm8.93,5.672V31.264a2.038,2.038,0,0,1,.121-.723,1.532,1.532,0,0,1,.9-.906,2,2,0,0,1,.721-.123,2.3,2.3,0,0,1-.223-.531,2.6,2.6,0,0,1,.127-1.752,2.652,2.652,0,0,1,.638-.883,3.129,3.129,0,0,1,1.02-.613,3.861,3.861,0,0,1,1.371-.23,2.625,2.625,0,0,1,2.249,1.117,3.5,3.5,0,0,1,.524,1.133,5.038,5.038,0,0,1,.165,1.284V37.07h-.942V29.037a4.532,4.532,0,0,0-.1-.988,2.334,2.334,0,0,0-.341-.82,1.743,1.743,0,0,0-.619-.561,1.938,1.938,0,0,0-.931-.207,2.509,2.509,0,0,0-1.062.2,2.155,2.155,0,0,0-.709.509,1.987,1.987,0,0,0-.4.669,2.06,2.06,0,0,0-.127.675,1.705,1.705,0,0,0,.153.695,2.18,2.18,0,0,0,.413.619,3.229,3.229,0,0,1,.857.71,4.667,4.667,0,0,1,.649.976,5.334,5.334,0,0,1,.413,1.117,4.692,4.692,0,0,1,.146,1.125v.319a4.037,4.037,0,0,1-.16,1.144,3.038,3.038,0,0,1-.464.954,2.267,2.267,0,0,1-.745.653,2.082,2.082,0,0,1-1.014.242H2372V29.512h.942v6.615Zm.943,0h1.6a1.26,1.26,0,0,0,.676-.179,1.5,1.5,0,0,0,.478-.468,2.151,2.151,0,0,0,.282-.653,2.973,2.973,0,0,0,.093-.736v-.334a4.235,4.235,0,0,0-.183-1.251,3.683,3.683,0,0,0-.5-1.054,2.643,2.643,0,0,0-.742-.727,1.637,1.637,0,0,0-.9-.272.8.8,0,0,0-.334.067.778.778,0,0,0-.414.434.885.885,0,0,0-.054.308Zm14.1,2.814a1.752,1.752,0,0,0-.757.134,1.472,1.472,0,0,0-.457.334,2.188,2.188,0,0,0-.31.438,2.127,2.127,0,0,1-.321.438,1.484,1.484,0,0,1-.487.334,1.979,1.979,0,0,1-.8.134,1.767,1.767,0,0,1-1.385-.576,2.856,2.856,0,0,1-.621-1.674h1.048a2.092,2.092,0,0,0,.319.973.794.794,0,0,0,.676.319.784.784,0,0,0,.393-.089.957.957,0,0,0,.27-.226,2.379,2.379,0,0,0,.217-.305c.067-.11.139-.22.216-.326a1.544,1.544,0,0,1,.27-.289,1.052,1.052,0,0,1,.393-.2,1.355,1.355,0,0,1-.319-.241,1.652,1.652,0,0,1-.241-.316,1.862,1.862,0,0,1-.163-.356,1.558,1.558,0,0,1-.079-.378h-3.318V29.512h.943v6.615h2.375V31.264a2.016,2.016,0,0,1,.123-.723,1.515,1.515,0,0,1,.9-.906,1.99,1.99,0,0,1,.719-.123,2.329,2.329,0,0,1,.925.186,2.9,2.9,0,0,1,.792.5,3.9,3.9,0,0,1,.65.734,4.917,4.917,0,0,1,.487.891,5.648,5.648,0,0,1,.3.969,4.545,4.545,0,0,1,.108.965v.319a4.029,4.029,0,0,1-.16,1.144,3.026,3.026,0,0,1-.463.954,2.265,2.265,0,0,1-.746.653,2.079,2.079,0,0,1-1.014.242h-1.684a1.034,1.034,0,0,0,.13.386.967.967,0,0,0,.252.289,1.25,1.25,0,0,0,.33.186,1.032,1.032,0,0,0,.365.067h1.276v.943Zm-1.61-13.215a.833.833,0,0,1,.348.078,1.025,1.025,0,0,1,.3.212,1.008,1.008,0,0,1,.212.3.827.827,0,0,1,.079.349.9.9,0,0,1-.074.363.926.926,0,0,1-.206.3,1.031,1.031,0,0,1-.3.2.857.857,0,0,1-.362.078.877.877,0,0,1-.386-.082,1.014,1.014,0,0,1-.3-.211.892.892,0,0,1-.192-.3.926.926,0,0,1-.066-.349.858.858,0,0,1,.077-.356,1.013,1.013,0,0,1,.2-.3.993.993,0,0,1,.3-.208A.868.868,0,0,1,2388.756,25.726Zm.415,10.4h1.6a1.259,1.259,0,0,0,.676-.179,1.5,1.5,0,0,0,.479-.468,2.124,2.124,0,0,0,.281-.653,2.917,2.917,0,0,0,.094-.736v-.334a4.3,4.3,0,0,0-.181-1.251,3.763,3.763,0,0,0-.5-1.054,2.646,2.646,0,0,0-.743-.727,1.637,1.637,0,0,0-.9-.272.8.8,0,0,0-.333.067.776.776,0,0,0-.252.179.751.751,0,0,0-.159.256.838.838,0,0,0-.056.308Z" transform="translate(-2368.195 -23.765)" fill="#222" stroke="#222" stroke-miterlimit="10" stroke-width="0.8"/>
    <text id="_" data-name=" " transform="translate(38.496 5)" fill="#222" stroke="#222" stroke-miterlimit="10" stroke-width="0.8" font-size="5" font-family="ArialMT, Arial"><tspan x="0" y="0"> </tspan></text>
    <path id="Path_5664" data-name="Path 5664" d="M2392.729,31.4a7.034,7.034,0,0,0,.108,1.17,6.845,6.845,0,0,0,.337,1.258,5.752,5.752,0,0,0,.58,1.146,2.732,2.732,0,0,0,.839.836,3.87,3.87,0,0,1-.408-.8,2.381,2.381,0,0,1-.162-.854,2.827,2.827,0,0,1,.181-1.051,2.317,2.317,0,0,1,.487-.768,2.034,2.034,0,0,1,.712-.475,2.31,2.31,0,0,1,.868-.164,1.958,1.958,0,0,1,.928.216,2.036,2.036,0,0,1,.682.576,2.586,2.586,0,0,1,.42.831,3.376,3.376,0,0,1,.145.991,3,3,0,0,1-.2,1.105,2.711,2.711,0,0,1-.538.873,2.388,2.388,0,0,1-.813.571,2.51,2.51,0,0,1-1.013.2,3.39,3.39,0,0,1-1.24-.22,3.519,3.519,0,0,1-1.021-.608,4.235,4.235,0,0,1-.8-.917,6.108,6.108,0,0,1-.575-1.144,6.957,6.957,0,0,1-.35-1.3,8.242,8.242,0,0,1-.115-1.37,6.522,6.522,0,0,1,.416-2.383,5.468,5.468,0,0,1,1.144-1.826,5.079,5.079,0,0,1,1.711-1.17,5.423,5.423,0,0,1,2.113-.412,4.151,4.151,0,0,1,1.752.352,3.725,3.725,0,0,1,1.287.965,4.212,4.212,0,0,1,.795,1.429,5.527,5.527,0,0,1,.271,1.753V37.07h-.943V30.226a4.612,4.612,0,0,0-.219-1.466,3.137,3.137,0,0,0-.63-1.118,2.754,2.754,0,0,0-1.013-.708,3.537,3.537,0,0,0-1.365-.249,4.36,4.36,0,0,0-1.8.363,4.072,4.072,0,0,0-1.38,1,4.447,4.447,0,0,0-.88,1.5A5.459,5.459,0,0,0,2392.729,31.4Zm2.236,2.873a3.215,3.215,0,0,0,.039.5,3.282,3.282,0,0,0,.123.509,2.763,2.763,0,0,0,.205.471,1.689,1.689,0,0,0,.277.378h.1a1.806,1.806,0,0,0,.817-.171,1.65,1.65,0,0,0,.556-.434,1.8,1.8,0,0,0,.32-.583,1.982,1.982,0,0,0,.1-.608,2.942,2.942,0,0,0-.067-.624,1.742,1.742,0,0,0-.215-.542,1.131,1.131,0,0,0-.388-.378,1.1,1.1,0,0,0-.578-.141,1.033,1.033,0,0,0-.549.145,1.387,1.387,0,0,0-.4.375,1.674,1.674,0,0,0-.254.52A2.057,2.057,0,0,0,2394.965,34.271Zm11.446,1.856V31.264a2.016,2.016,0,0,1,.124-.723,1.518,1.518,0,0,1,.9-.906,1.993,1.993,0,0,1,.72-.123,2.318,2.318,0,0,1,.924.186,2.95,2.95,0,0,1,.795.5,3.942,3.942,0,0,1,.649.734,4.744,4.744,0,0,1,.486.891,5.486,5.486,0,0,1,.305.969,4.653,4.653,0,0,1,.107.965v.319a4.081,4.081,0,0,1-.159,1.144,3.044,3.044,0,0,1-.465.954,2.266,2.266,0,0,1-.746.653,2.07,2.07,0,0,1-1.011.242h-5.948V29.512h.943v6.615Zm.944,0h1.6a1.256,1.256,0,0,0,.674-.179,1.491,1.491,0,0,0,.479-.468,2.182,2.182,0,0,0,.282-.653,2.994,2.994,0,0,0,.092-.736v-.334a4.266,4.266,0,0,0-.181-1.251,3.735,3.735,0,0,0-.5-1.054,2.669,2.669,0,0,0-.744-.728,1.637,1.637,0,0,0-.9-.27.81.81,0,0,0-.334.067.758.758,0,0,0-.252.179.778.778,0,0,0-.161.256.869.869,0,0,0-.055.308Zm10.308.943h-.944V30.455h-2.524V37.07h-.943V29.512h6.3v.943h-1.884Zm7.027-.943V31.264a2.038,2.038,0,0,1,.123-.723,1.525,1.525,0,0,1,.9-.906,2,2,0,0,1,.721-.123,2.253,2.253,0,0,1-.224-.531,2.6,2.6,0,0,1,.126-1.752,2.655,2.655,0,0,1,.639-.883,3.122,3.122,0,0,1,1.021-.613,3.849,3.849,0,0,1,1.37-.23,2.626,2.626,0,0,1,2.248,1.117,3.482,3.482,0,0,1,.524,1.133,5.039,5.039,0,0,1,.166,1.284V37.07h-.943V29.037a4.673,4.673,0,0,0-.1-.988,2.421,2.421,0,0,0-.343-.82,1.739,1.739,0,0,0-.619-.561,1.941,1.941,0,0,0-.931-.207,2.52,2.52,0,0,0-1.062.2,2.177,2.177,0,0,0-.71.509,1.979,1.979,0,0,0-.4.669,2.051,2.051,0,0,0-.126.675,1.7,1.7,0,0,0,.152.695,2.181,2.181,0,0,0,.411.619,3.258,3.258,0,0,1,.858.71,4.684,4.684,0,0,1,.649.976,5.319,5.319,0,0,1,.412,1.117,4.656,4.656,0,0,1,.146,1.125v.319a3.994,3.994,0,0,1-.161,1.144,2.991,2.991,0,0,1-.464.954,2.267,2.267,0,0,1-.745.653,2.078,2.078,0,0,1-1.013.242h-1.686a1.066,1.066,0,0,0,.13.386,1,1,0,0,0,.253.289,1.267,1.267,0,0,0,.33.186,1.028,1.028,0,0,0,.364.067h1.278v.943h-1.159a1.968,1.968,0,0,0-.6.078,1.4,1.4,0,0,0-.408.2,1.313,1.313,0,0,0-.281.29c-.077.108-.152.22-.224.334s-.146.225-.225.334a1.311,1.311,0,0,1-.294.29,1.451,1.451,0,0,1-.43.2,2.2,2.2,0,0,1-.634.078,1.822,1.822,0,0,1-1.406-.576,2.782,2.782,0,0,1-.635-1.674h1.047a1.875,1.875,0,0,0,.349.973.815.815,0,0,0,.645.319.609.609,0,0,0,.36-.108,1.437,1.437,0,0,0,.281-.263,3.675,3.675,0,0,0,.253-.345,2.85,2.85,0,0,1,.262-.346,1.464,1.464,0,0,1,.321-.263.8.8,0,0,1,.422-.108,1.523,1.523,0,0,1-.408-.241,1.58,1.58,0,0,1-.287-.316,1.326,1.326,0,0,1-.173-.356,1.637,1.637,0,0,1-.076-.378h-3.318V29.512h.943v6.615Zm.943,0h1.6a1.256,1.256,0,0,0,.676-.179,1.513,1.513,0,0,0,.48-.468,2.162,2.162,0,0,0,.281-.653,2.949,2.949,0,0,0,.092-.736v-.334a4.267,4.267,0,0,0-.183-1.251,3.644,3.644,0,0,0-.5-1.054,2.661,2.661,0,0,0-.743-.728,1.639,1.639,0,0,0-.9-.27.8.8,0,0,0-.334.067.777.777,0,0,0-.253.179.74.74,0,0,0-.158.256.834.834,0,0,0-.057.308Z" transform="translate(-2360.844 -23.765)" fill="#222" stroke="#222" stroke-miterlimit="10" stroke-width="0.8"/>
  </g>
</svg>
