<?xml version="1.0" standalone="no"?>
<!DOCTYPE svg PUBLIC "-//W3C//DTD SVG 1.1//EN" "http://www.w3.org/Graphics/SVG/1.1/DTD/svg11.dtd" >
<svg xmlns="http://www.w3.org/2000/svg" xmlns:xlink="http://www.w3.org/1999/xlink" version="1.1">
<metadata>
Created by FontForge 20170731 at Sat Oct  1 02:00:00 1994
 By Aleksey,,,
(c) Copyright DynaLab Inc. 1993
</metadata>
<defs>
<font id="DFZongYiBold1B-GB" horiz-adv-x="1000" >
  <font-face 
    font-family="DFZongYiBold1B-GB"
    font-weight="400"
    font-stretch="normal"
    units-per-em="1000"
    panose-1="2 1 6 9 0 1 1 1 1 1"
    ascent="860"
    descent="-140"
    x-height="797"
    cap-height="829"
    bbox="39 -117 965 829"
    underline-thickness="50"
    underline-position="-175"
    unicode-range="U+0001-00FE"
  />
<missing-glyph 
 />
    <glyph glyph-name=".notdef" 
 />
    <glyph glyph-name="glyph1" 
 />
    <glyph glyph-name="glyph1" 
 />
    <glyph glyph-name="glyph2" 
 />
    <glyph glyph-name="glyph3" 
 />
    <glyph glyph-name="glyph4" 
 />
    <glyph glyph-name="glyph5" 
 />
    <glyph glyph-name="glyph6" 
 />
    <glyph glyph-name="glyph7" 
 />
    <glyph glyph-name="glyph8" 
 />
    <glyph glyph-name="glyph9" 
 />
    <glyph glyph-name="glyph10" unicode="&#x9;" 
 />
    <glyph glyph-name="glyph11" unicode="&#xa;" 
 />
    <glyph glyph-name="glyph12" 
 />
    <glyph glyph-name="glyph13" 
 />
    <glyph glyph-name="glyph14" unicode="&#xd;" 
 />
    <glyph glyph-name="glyph15" 
 />
    <glyph glyph-name="glyph16" 
 />
    <glyph glyph-name="glyph17" 
 />
    <glyph glyph-name="glyph18" 
 />
    <glyph glyph-name="glyph19" 
 />
    <glyph glyph-name="glyph20" 
 />
    <glyph glyph-name="glyph21" 
 />
    <glyph glyph-name="glyph22" 
 />
    <glyph glyph-name="glyph23" 
 />
    <glyph glyph-name="glyph24" 
 />
    <glyph glyph-name="glyph25" 
 />
    <glyph glyph-name="glyph26" 
 />
    <glyph glyph-name="glyph27" 
 />
    <glyph glyph-name="glyph28" 
 />
    <glyph glyph-name="glyph29" 
 />
    <glyph glyph-name="glyph30" 
 />
    <glyph glyph-name="glyph31" 
 />
    <glyph glyph-name="glyph32" 
 />
    <glyph glyph-name="glyph33" unicode=" " 
 />
    <glyph glyph-name="glyph34" unicode="!" 
d="M586 516v-210q0 -95 -108 -95h-97v69h122v61h-89v175h172z" />
    <glyph glyph-name="glyph35" unicode="&#x22;" 
d="M609 392q0 -45 -33 -77t-80 -32t-80 32t-33 77t33 77t80 32t80 -31t33 -78zM554 393q0 57 -59 57t-59 -57q0 -58 60 -58q58 0 58 58z" />
    <glyph glyph-name="glyph36" unicode="#" 
d="M643 347l-95 -91q-80 97 -184 184l84 81q146 -123 195 -174z" />
    <glyph glyph-name="glyph37" unicode="$" 
d="M605 157l148 -78l-64 -88l-196 107v523l196 107l64 -87l-148 -80v-404z" />
    <glyph glyph-name="glyph38" unicode="%" 
d="M507 621v-523l-195 -107l-65 88l148 78v404l-148 80l65 87z" />
    <glyph glyph-name="glyph39" unicode="&#x26;" 
d="M410 821h164v-63h371v-230h-140v105h-614v-101h-140v226h359v63zM133 489h734v-141l-94 -78h168v-129h-261v-160q0 -74 -94 -74h-473v121h383q27 0 27 23v90h-464v129h511l118 98h-555v121z" />
    <glyph glyph-name="glyph40" unicode="'" 
d="M418 801h504v-418q0 -101 -125 -101h-231v-71h364v-113h-364v-66h379v-114h-890v114h371v66h-356v113h356v71h-348v519h340zM418 395h8v86h-211v-86h203zM566 481v-86h184q31 0 31 23v63h-215zM215 590h211v98h-211v-98zM566 688v-98h215v98h-215z" />
    <glyph glyph-name="glyph41" unicode="(" 
d="M180 813h156l-85 -202q-5 -14 -12 -25h113l-94 -219l-4 -9v-440h-141v375h-66v125h51q32 0 47 39l34 88q-9 -2 -19 -2h-105v125h47q26 0 37 34zM934 793v-113h-543v113h543zM941 575v-118h-58v-425q0 -114 -141 -114h-262v121h227q27 0 27 24v394h-359v118h566z" />
    <glyph glyph-name="glyph42" unicode=")" 
d="M98 813h140l12 -31q7 -28 31 -28h47v-109h-113q-65 0 -82 62zM86 614h133v-703h-133v703zM359 797h567v-812q0 -71 -82 -71h-129v100q-24 -29 -74 -29h-364v621h457v-524q0 -27 -7 -46h43q19 0 19 23v609h-430v129zM582 102q23 0 23 39v98h-199v-137h176zM406 352h199
v137h-199v-137z" />
    <glyph glyph-name="glyph43" unicode="*" 
d="M70 778h141l19 -102q7 -31 32 -31h47v-121h-114q-64 0 -82 66zM66 489h141l16 -82q6 -32 31 -32h55v-121h-121q-65 0 -83 67zM164 219h141l-51 -226q-20 -79 -98 -79h-90v118h43q15 0 24 31zM418 809h148l-24 -66h399v-719q0 -110 -125 -110h-109v125h63q31 0 31 28v551
h-303l-7 -17q-23 -69 -81 -69h-78v113h23q21 0 31 38zM477 532h148l-145 -379h129q20 0 20 19v172h121v-223q0 -29 -25 -58q-30 -35 -73 -35h-320v90q0 21 16 58z" />
    <glyph glyph-name="glyph44" unicode="+" 
d="M309 809h562v-125l-84 -66h131v-438q0 -52 -33 -87q-26 -30 -76 -30h-90v98h43q22 0 23 43h-121v-133h-133v133h-117v-141h-133v555h119l-37 54h149l36 -54h55l100 86h-394v105zM414 301h117v59h-117v-59zM664 360v-59h121v59h-121zM414 457h117v59h-117v-59zM664 516
v-59h121v59h-121zM90 805h144v-180h-144v180zM55 551h175v-426q25 -89 114 -89h601v-118h-652q-31 0 -86 36q-63 -43 -156 -43v121q51 8 51 35v355h-47v129z" />
    <glyph glyph-name="glyph45" unicode="," 
d="M922 797v-125h-254v-629h270v-117h-887v117h277v629h-262v125h856zM461 43h78v629h-78v-629zM59 586h129l58 -300q6 -32 27 -32h8v-113h-70q-59 0 -74 63zM809 586h129l-57 -330q-22 -115 -108 -115h-58v113h15q21 0 33 56z" />
    <glyph glyph-name="glyph46" unicode="-" 
d="M55 793h133l19 -105q7 -27 31 -27h12v-79h82l31 -214v453h121v-235h79l23 -164v391h125v-227h70l32 -218v445h125v-899h-125v313h-36q-54 0 -62 90l-4 33v-432h-125v309h-27q-55 0 -63 90l-12 101v-406q0 -105 -113 -105h-101v109h70q23 0 23 20v191h-35q-54 0 -62 90
l-28 234h-66q-59 0 -74 63zM39 516h133l23 -105q7 -28 32 -28h15v-109h-82q-58 0 -74 62zM129 215h137l-47 -220q-19 -77 -90 -77h-78v118h31q12 0 20 30z" />
    <glyph glyph-name="glyph47" unicode="." 
d="M434 817h164l-74 -238h121l148 -493q7 -35 31 -35h125v-129h-199q-68 0 -86 74l-156 530l-157 -506q-27 -98 -97 -98h-203v133h121q20 0 32 33z" />
    <glyph glyph-name="glyph48" unicode="/" 
d="M129 797h144l29 -109h120v125h148v-125h137l43 109h148l-43 -109h90v-121h-375v-223h-148v223h-371v121h106zM203 536h156l-101 -183q-15 -32 -51 -32h-148v117h74q13 0 20 13zM629 536h156l43 -86q11 -24 35 -24h82v-117h-152q-69 0 -98 86zM945 243v-118h-290l79 -76
q27 -17 71 -17h140v-118h-183q-105 0 -152 50l-114 130l-131 -132q-42 -48 -131 -48h-179v118h133q43 0 68 17l79 76h-280v118h363v66h156v-66h371z" />
    <glyph glyph-name="glyph49" unicode="0" 
d="M422 821h168v-75h348v-125h-879v125h363v75zM691 555h184l-271 -283l205 -189q40 -40 89 -40h40v-129h-133q-71 0 -119 50l-189 195l-169 -177q-66 -68 -156 -68h-113v129h70q57 0 97 44l172 174l-285 294h184l206 -189z" />
    <glyph glyph-name="glyph50" unicode="1" 
d="M82 774h336v-742q0 -86 -98 -86h-238v828zM254 63q31 0 31 27v215h-70v-242h39zM215 426h70v231h-70v-231zM688 793h246v-781q0 -101 -121 -101h-106v117h59q31 0 31 27v102h-188v-145q-2 -100 -97 -101h-78v117h27q12 0 12 19v746h215zM609 270h188v141h-188v-141z
M609 524h188v152h-188v-152z" />
    <glyph glyph-name="glyph51" unicode="2" 
d="M86 727h336v86h141v-86h351v-328q0 -98 -101 -98h-272l-72 -143l183 -94q64 -32 145 -32h152v-121h-242q-60 0 -106 26l-187 111l-33 -67q-29 -67 -96 -67h-215v125h141q39 0 59 43l21 38l-228 134h218l65 -33l44 80h-304v426zM746 418q27 0 27 39v153h-210v-192h183z
M422 418v192h-195v-192h195z" />
    <glyph glyph-name="glyph52" unicode="3" 
d="M199 805h149l-18 -62h131v-114h27q11 0 18 31l25 149h133l-15 -70h292v-715q0 -106 -121 -106h-254v121h207q32 0 32 28v543h-183l-4 -19q-17 -75 -87 -75h-70v-512q0 -90 -98 -90h-300v829h118zM297 36q31 0 31 27v207h-133v-234h102zM195 399h133v222h-133v-222z
M500 485h137l47 -219q6 -35 31 -35h66v-125h-133q-61 0 -78 70z" />
    <glyph glyph-name="glyph53" unicode="4" 
d="M137 805h136v-375h657v-125h-657v-246q0 -23 24 -23h117v-125h-195q-82 0 -82 74v320h-86v125h86v375zM727 782h164l-150 -250q-18 -28 -42 -28h-367v117h285q14 0 29 27zM344 258h195l171 -177q30 -30 67 -30h137v-117h-219q-33 0 -57 25z" />
    <glyph glyph-name="glyph54" unicode="5" 
d="M63 793h164l19 -101q8 -31 39 -31h51v-118h-133q-74 0 -94 67zM59 496h160l23 -93q8 -32 39 -32h55v-113h-133q-74 0 -94 63zM184 215h148l-62 -229q-24 -79 -118 -79h-97v105h47q21 0 34 34zM957 782v-121h-39v-641q0 -52 -33 -87q-26 -30 -76 -30h-82v117h35
q23 0 23 55v586h-437v121h609zM375 606h348v-559q0 -90 -94 -90h-254v649zM563 79q31 0 31 27v387h-90v-414h59z" />
    <glyph glyph-name="glyph55" unicode="6" 
d="M66 789h477v-293q0 -82 -74 -82h-110v-39h164v-105h-164v-43h176v-106h-472v106h187v43h-176v105h176v39h-184v375zM418 512q20 0 20 31v47l-20 -54h-59v-24h59zM250 512v24h-55l-23 60v-84h78zM250 606v86h-78v-35h58zM359 692v-90l20 55h59v35h-79zM180 94
q-9 -109 -34 -146q-24 -34 -54 -34h-41v90q28 12 35 90h94zM195 94h86q5 -72 24 -82v-98h-35q-26 0 -46 34q-21 37 -29 146zM305 94h86q6 -72 31 -82v-98h-38q-27 0 -48 34q-23 37 -31 146zM422 94h86q6 -78 31 -90v-90h-38q-27 0 -48 34q-23 37 -31 146zM941 629v-117h-152
l-9 -47h99l43 -383q5 -35 27 -35v-133h-62q-56 0 -71 75l-52 396l-72 -373q-17 -98 -55 -98h-86v118h12q18 0 28 71l64 409h-96v117h109v192h137v-192h136zM828 809h78v-35q0 -20 12 -20h20v-105h-63q-47 0 -47 62v98z" />
    <glyph glyph-name="glyph56" unicode="7" 
d="M363 704v-125h-82v-540h90v-125h-320v125h97v540h-89v125h89v93h133v-93h82zM934 723v-508q0 -109 -118 -109h-39v109h20q12 0 12 24v345l-71 -12v-486h-125v466l-66 -11v-474q0 -28 31 -28h375v-121h-406q-125 0 -125 121v482l-55 -9v129l55 8v140h125v-122l66 10v132
h125v-114z" />
    <glyph glyph-name="glyph57" unicode="8" 
d="M70 793h141l27 -109q7 -31 32 -31h23v-114h-90q-65 0 -82 63zM66 512h141l27 -113q7 -31 32 -31h27v-114h-94q-64 0 -82 63zM148 207h141l-52 -211q-20 -74 -100 -74h-74v114h27q15 0 25 28zM551 821h148v-43h250v-117h-359l-102 -141h278q31 0 31 47v39h133v-86
q0 -50 -24 -76q-28 -37 -90 -37h-476v101q0 22 16 40l87 113h-127v117h235v43zM379 360h125v-344q0 -49 -32 -81q-25 -28 -74 -28h-82v109h39q24 0 24 51v293zM563 344h125v-433h-125v433zM754 360h129v-313q0 -19 23 -19h43v-114h-121q-74 0 -74 67v379z" />
    <glyph glyph-name="glyph58" unicode="9" 
d="M51 805h140l20 -86q7 -35 31 -35h31v-129h-97q-65 0 -82 74zM55 508h140l16 -86q7 -35 31 -35h31v-129h-97q-65 0 -82 74zM137 207h140l-48 -220q-19 -76 -92 -76h-82v125h35q12 0 20 28zM324 786h133l25 -102q4 -20 14 -20h35v-97h-86q-54 0 -71 53zM555 809h133v-270
h257v-523q0 -102 -113 -102h-62v114h19q27 0 27 23v371h-398v-500h-125v617h262v270zM801 786h133l-45 -163q-17 -56 -84 -56h-90v97h47q10 0 16 21zM465 375h308v-277q0 -70 -82 -70h-226v347zM637 125q27 0 27 24v129h-90v-153h63z" />
    <glyph glyph-name="glyph59" unicode=":" 
d="M82 793h820v-140l-214 -223v-449q0 -70 -86 -70h-372v117h286q27 0 27 19v422l172 203h-633v121z" />
    <glyph glyph-name="glyph60" unicode=";" 
d="M328 786h516v-723q0 -27 23 -27h78v-118h-148q-98 0 -98 102v644h-418v-644q-2 -100 -97 -102h-133v118h82q12 0 12 19v731h183z" />
    <glyph glyph-name="glyph61" unicode="&#x3c;" 
d="M766 809h148q-6 -103 -40 -145q-32 -39 -93 -39h-207v-218h375v-129h-375v-371h-144v371h-379v129h379v218h-340v121h629q33 0 47 63z" />
    <glyph glyph-name="glyph62" unicode="=" 
d="M145 805h148l-15 -55h652v-117h-309v-117h289v-121h-289v-164h328v-121h-328v-199h-144v199h-426v121h90v285h336v117h-231l-3 -8q-19 -62 -95 -62h-89v117h39q12 0 19 21zM477 231v164h-196v-164h196z" />
    <glyph glyph-name="glyph63" unicode="&#x3e;" 
d="M938 739v-133h-528l-140 -218v-481h-141v422h-78v144h82q26 0 44 30l69 103h-183v133h271l53 78h160l-51 -78h442zM922 395v-133h-231v-199h266v-133h-664v133h246v199h-223v133h223v152h152v-152h231z" />
    <glyph glyph-name="glyph64" unicode="?" 
d="M945 680v-129h-97v-363q0 -82 -98 -82h-363v445h-114v-484q0 -24 28 -24h648v-125h-734q-86 0 -86 75v558h-74v129h74v129h144v-129h114v129h140v-129h180v129h141v-129h97zM527 551v-324h153q27 0 27 23v301h-180z" />
    <glyph glyph-name="glyph65" unicode="@" 
d="M90 805h820v-324q0 -90 -97 -90h-169l51 -39q14 -12 43 -12h207v-121h-285q-30 0 -51 16l-105 94l-125 -94q-20 -16 -51 -16h-273v121h195q29 0 43 12l61 39h-264v414zM746 496q27 0 27 36v15h-195v-51h168zM434 496v51h-207v-51h207zM227 649h207v51h-207v-51zM578 700
v-51h195v51h-195zM176 192h140v-168q0 -110 -132 -110h-82v118h46q28 0 28 19v141zM676 192h144v-278h-144v278z" />
    <glyph glyph-name="glyph66" unicode="A" 
d="M203 809h152l-20 -35h579v-102l-291 -182l74 -31q53 -21 119 -21h125v-113h-222q-53 0 -93 20l-128 66l-108 -67q-33 -19 -85 -19h-250v113h195q44 0 84 23l31 18l-209 107h235l91 -38l198 116h-409l-28 -46q-15 -28 -48 -28h-136v110h66q17 0 26 17zM90 289h820v-281
q0 -94 -101 -94h-719v375zM742 28q28 0 28 35v113h-540v-148h512z" />
    <glyph glyph-name="glyph67" unicode="B" 
d="M211 809h141l-79 -200v-698h-136v593h-86v121h74q18 0 29 30zM379 809h137l11 -43q7 -31 32 -31h50v-117h-117q-61 0 -78 66zM332 579h133v-668h-133v668zM652 789h293v-769q0 -106 -125 -106h-207v122h160q32 0 32 27v605h-153v121z" />
    <glyph glyph-name="glyph68" unicode="C" 
d="M86 774h144v-731q0 -55 -36 -92q-29 -33 -85 -33h-58v121h8q27 0 27 59v676zM285 809h137v-742q0 -31 31 -31h274v-125h-305q-137 0 -137 125v773zM492 793h141v-515q0 -24 27 -24h67v-133h-153q-82 0 -82 79v593zM766 774h144v-723q0 -19 28 -19h11v-118h-97
q-86 0 -86 71v789z" />
    <glyph glyph-name="glyph69" unicode="D" 
d="M66 676h356v133h148v-133h364v-418q0 -101 -106 -101h-258v-250h-148v250h-356v519zM758 293q35 0 35 32v218h-223v-250h188zM422 293v250h-215v-250h215z" />
    <glyph glyph-name="glyph70" unicode="E" 
d="M348 735v-117h-63v-59h59v-117h-59v-422q0 -49 -32 -81q-25 -28 -73 -28h-114v113h71q23 0 23 55v140l-18 -57q-17 -48 -40 -48h-63v117q26 0 38 41l76 241l7 15v90h-105v117h105v70h125v-70h63zM809 809h136q-5 -73 -37 -102q-29 -27 -84 -27h-105v-78h50l16 62h125
l-16 -62h51v-94h-226v-176h-125v176h-223v94h47l-16 62h125l16 -62h51v78h-227v106h399q30 0 43 23zM445 489h137l-60 -112q-19 -37 -65 -37h-105v98h54q13 0 19 12zM730 493h137l20 -42q6 -13 23 -13h43v-98h-109q-33 0 -56 38zM590 317h348v-321q0 -82 -114 -82h-449v403
h215zM590 8v59h-90v-59h90zM719 67v-59h62q28 0 28 20v39h-90zM500 161h90v62h-90v-62zM719 223v-62h90v62h-90z" />
    <glyph glyph-name="glyph71" unicode="F" 
d="M945 805v-121h-410v-770h-148v770h-332v121h890zM543 571h145l63 -342q12 -65 38 -65h109v-128h-164q-85 0 -112 129z" />
    <glyph glyph-name="glyph72" unicode="G" 
d="M918 711v-121h-113v-269h140v-121h-890v121h144v269h-121v121h121v98h145v-98h316v98h145v-98h113zM660 321v269h-316v-269h316zM223 164h152l-86 -184q-28 -62 -94 -62h-129v121h71q29 0 41 29zM617 164h153l35 -97q11 -24 35 -24h90v-121h-160q-67 0 -94 86z" />
    <glyph glyph-name="glyph73" unicode="H" 
d="M930 805v-769q0 -56 -35 -93q-29 -32 -82 -32h-83v121h32q27 0 27 58v594h-574v-766h-141v887h856zM746 621v-121h-492v121h492zM277 438h446v-332q0 -98 -94 -98h-352v430zM563 125q27 0 27 39v157h-180v-196h153z" />
    <glyph glyph-name="glyph74" unicode="I" 
d="M430 829h148v-47h363v-94h-875v94h364v47zM184 668h148l43 -50h262l47 50h148l-47 -50h164v-98h-894v98h171zM82 496h844v-261q0 -71 -67 -71h-777v332zM777 258q12 0 12 22v9h-570v-31h558zM219 375h570v28h-570v-28zM98 137h129v-113q0 -51 -32 -84q-26 -29 -74 -29
h-70v93h23q24 0 24 43v90zM281 137h129v-109q0 -24 31 -24h293v-93h-324q-129 0 -129 93v133zM465 137h109q32 -23 88 -23h68v-82h-155q-110 0 -110 68v37zM781 133h133v-94q0 -23 43 -31v-94q-90 0 -143 18q-33 13 -33 41v160z" />
    <glyph glyph-name="glyph75" unicode="J" 
d="M945 817v-98h-289l-21 -39h256v-254q0 -70 -86 -70h-172v-156q0 -51 -74 -51h-129v90h58q16 0 16 15v102h-254v324h229l21 39h-285v-445q0 -129 -129 -129h-27v101q27 0 27 32v539h859zM746 450q27 0 27 23v4h-402v-27h375zM371 559h402v27h-402v-27zM324 325h125
l-45 -131q-18 -45 -88 -45h-97v94h54q14 0 22 13zM676 325h125l27 -55q6 -24 27 -24h71v-93h-133q-55 0 -70 51zM230 121l-30 -158q-9 -45 -55 -45h-90v102h15q15 0 19 14l20 87h121zM281 121h129v-97q0 -20 31 -20h297v-90h-328q-129 0 -129 90v117zM477 133h125l3 -19
q0 -12 12 -12h117v-82h-168q-79 0 -86 59zM730 129h129l40 -92q7 -17 23 -17h23v-98h-70q-64 0 -85 50z" />
    <glyph glyph-name="glyph76" unicode="K" 
d="M211 809h141v-55h168v-113h-465v113h156v55zM70 602h426v-238q0 -94 -86 -94h-66v-258q0 -47 -31 -78q-24 -27 -71 -27h-62v109h19q24 0 24 51v203h-153v332zM352 379q23 0 23 35v79h-184v-114h161zM94 231h117l-40 -221q-16 -76 -77 -76h-55v109h16q10 0 16 32zM359 231
h114l24 -128q5 -24 15 -24h4v-114h-47q-49 0 -64 64zM824 774h121v-137q0 -70 -70 -70h-127l-6 -121h113l28 -371q5 -36 27 -36h39v-117h-109q-68 0 -78 98l-24 363l-17 -314q-3 -73 -38 -108q-39 -39 -93 -39h-59v117h20q39 0 42 61l28 467h-90v117h97l9 133h125l-7 -133
h54q15 0 15 20v70z" />
    <glyph glyph-name="glyph77" unicode="L" 
d="M121 813h758v-317q0 -89 -106 -89h-652v406zM699 512q31 0 31 35v12h-460v-47h429zM270 661h460v46h-460v-46zM926 360v-117h-379v-55h348v-106h-348v-54h402v-110h-640q-23 0 -63 32q-78 -47 -191 -47v109q86 8 86 31v161h132v-98q19 -78 82 -78h51v215h-340v117h860z
" />
    <glyph glyph-name="glyph78" unicode="M" 
d="M59 805h144v-738q0 -24 27 -24h86v-121h-171q-86 0 -86 71v812zM250 743h145l53 -243q10 -46 32 -46h47v-125h-101q-79 0 -103 100zM699 817h164l-84 -254l71 -473q10 -62 17 -62h63v-117h-184q-14 0 -26 93l-35 276l-90 -274q-32 -92 -75 -92h-129v122h43q33 0 70 128z
" />
    <glyph glyph-name="glyph79" unicode="N" 
d="M570 797v-113h-50v-266h46v-117h-46v-383h-133v383h-141v-269q0 -51 -32 -84q-25 -30 -73 -30h-86v106h39q23 0 23 51v226h-62v117h62v266h-58v113h511zM387 418v266h-141v-266h141zM770 817h152l-85 -202q-26 -68 -91 -68h-152v117h94q27 0 39 36zM777 528h153l-96 -229
q-30 -76 -104 -76h-140v117h82q35 0 51 43zM801 207h152l-90 -219q-29 -74 -97 -74h-180v118h121q32 0 45 40z" />
    <glyph glyph-name="glyph80" unicode="O" 
d="M797 793h137v-86q0 -117 -129 -117h-79l87 -519q5 -35 27 -35h109v-122h-183q-75 0 -86 102l-89 574h-540v125h520l-16 106h133l17 -106h68q24 0 24 24v54zM566 504v-121h-164v-308h211v-121h-547v121h196v308h-176v121h480z" />
    <glyph glyph-name="glyph81" unicode="P" 
d="M398 805h172v-62h371v-114h-882v114h339v62zM266 598h164l-53 -139q-20 -48 -100 -48h-211v113h157q11 0 18 12zM574 602h164l35 -66q6 -12 20 -12h145v-113h-208q-69 0 -91 46zM656 371h211l-258 -244l80 -69q29 -26 65 -26h191v-118h-273q-56 0 -95 36l-78 73l-62 -59
q-52 -46 -121 -46h-261v114h179q53 0 112 55l42 38l-267 246h199l175 -148z" />
    <glyph glyph-name="glyph82" unicode="Q" 
d="M105 797h805v-422q0 -93 -105 -93h-700v515zM738 391q28 0 28 35v59h-188v-94h160zM430 391v94h-180v-94h180zM250 594h180v94h-180v-94zM578 688v-94h188v94h-188zM117 235h145l-55 -235q-22 -82 -105 -82h-59v121h12q16 0 26 33zM289 235h137v-188q0 -19 23 -19h285
v-114h-363q-82 0 -82 67v254zM477 235h128v-51q0 -20 24 -20h74v-101h-152q-74 0 -74 58v114zM727 235h144l42 -161q7 -31 25 -31h23v-121h-78q-70 0 -92 76z" />
    <glyph glyph-name="glyph83" unicode="R" 
d="M516 750v-109h-164v-406h-129v406h-168v109h168v59h129v-59h164zM191 594v-211q0 -52 -31 -93q-34 -32 -105 -40v121q23 5 23 20v203h113zM383 594h113v-199q0 -15 20 -20v-121q-70 8 -103 40q-30 41 -30 93v207zM543 786h391v-461q0 -94 -94 -94h-297v555zM781 340
q24 0 24 35v12h-133v-47h109zM672 485h133v47h-133v-47zM672 629h133v47h-133v-47zM94 200h133v-219q0 -63 -79 -63h-97v110h23q20 0 20 19v153zM281 196h141v-141q0 -23 27 -23h278v-121h-364q-82 0 -82 70v215zM473 192h125v-24q0 -15 23 -15h27v-94h-101q-74 0 -74 55v78
zM773 200h141v-157q0 -19 27 -19h8v-113h-94q-82 0 -82 66v223z" />
    <glyph glyph-name="glyph84" unicode="S" 
d="M219 809h152l-86 -152v-321h-137v262h-97v125h94q15 0 24 14zM449 805h141v-164h144q28 0 28 55v70h140v-113q0 -56 -35 -93q-28 -32 -82 -32h-195v-43q0 -20 27 -20h328v-117h-414q-82 0 -82 70v110h-78v113h78v164zM945 219v-121h-386v-187h-141v187h-363v121h363v94
h141v-94h386z" />
    <glyph glyph-name="glyph85" unicode="T" 
d="M461 813h148v-43h336v-109h-726v-618q0 -129 -129 -129h-39v110h23q16 0 16 19v727h371v43zM246 606h266v35h129v-35h246v-129h51v-90h-51v-43q0 -86 -114 -86h-132v-246q0 -98 -121 -98h-51v102h19q24 0 24 20v222h-266v98h266v31h-262v90h262v31h-266v98zM641 508v-31
h117v31h-117zM641 387v-31h89q28 0 28 19v12h-117zM254 235h133l9 -24q8 -15 26 -15h51v-98h-102q-63 0 -89 65zM332 67h137q-31 -89 -58 -112q-29 -25 -67 -25h-106v98h55q23 0 39 39zM797 235h133q-29 -89 -55 -112q-27 -25 -62 -25h-133v98h82q21 0 35 39zM688 67h136
l6 -24q5 -15 18 -15h78v-98h-133q-56 0 -80 65z" />
    <glyph glyph-name="glyph86" unicode="U" 
d="M320 801h114q-5 -75 -31 -105q-25 -28 -71 -28h-35v-70h144v-109h-144v-578h-117v578h-125v109h125v70h-114v106h219q25 0 35 27zM82 426h98l-24 -424q-2 -42 -23 -62q-23 -22 -55 -22h-39v110h4q18 0 19 31zM297 422h101l28 -371q4 -27 23 -27h8v-102h-66q-58 0 -67 86z
M449 762h141l23 -82q7 -31 32 -31h58v-117h-125q-65 0 -82 66zM457 493h141l19 -82q7 -32 31 -32h51v-117h-117q-65 0 -82 67zM949 235v-121l-70 -10v-190h-137v172l-289 -39v121l289 39v598h137v-580z" />
    <glyph glyph-name="glyph87" unicode="V" 
d="M406 731v-121h-86v-106h71v-121h-71v-355q0 -51 -31 -84q-26 -30 -74 -30h-125v114h78q23 0 23 54v80l-8 -22q-20 -42 -46 -42h-78v113h15q29 0 42 37l75 186v176h-117v121h117v70h129v-70h86zM930 711v-117h-184v-98h184v-125l-179 -249l64 -72q18 -22 40 -22h83v-114
h-161q-35 0 -60 31l-49 61l-37 -52q-29 -40 -88 -40h-152v114h89q38 0 57 24l46 61l-157 196h160l77 -87l118 157h-343v117h175v98h-168v117h168v98h133v-98h184z" />
    <glyph glyph-name="glyph88" unicode="W" 
d="M406 723v-125h-78v-59h59v-128h-59v-391q0 -106 -125 -106h-117v114h86q23 0 23 19v146l-22 -59q-20 -48 -48 -48h-74v118h12q30 0 44 41l88 242v111h-140v125h140v86h133v-86h78zM547 676v-340h58v340h-58zM734 676v-340h47q24 0 24 24v316h-71zM547 215v-164
q0 -19 23 -19h356v-114h-422q-86 0 -86 90v793h520v-504q0 -82 -86 -82h-305z" />
    <glyph glyph-name="glyph89" unicode="X" 
d="M156 817h137l-55 -160v-750h-129v570h-62v121h23q18 0 29 36zM945 766v-121h-261v-51h238v-258q0 -93 -94 -93h-161l-58 -134l89 -59q42 -26 95 -26h156v-117h-234q-42 0 -74 23l-83 62l-12 -28q-22 -57 -73 -57h-188v117h113q28 0 42 36l6 14l-180 133h191l38 -24l27 60
h-213v351h238v51h-262v121h262v59h137v-59h261zM762 356q27 0 27 35v90h-105v-125h78zM547 356v125h-106v-125h106z" />
    <glyph glyph-name="glyph90" unicode="Y" 
d="M387 801h554v-789q0 -90 -117 -90h-160v110h103q34 0 34 7v125h-211v-234h-145v234h-203v-121q0 -140 -140 -140h-43v109h15q28 0 28 31v758h285zM242 278h203v152h-203v-152zM590 430v-152h211v152h-211zM242 543h203v145h-203v-145zM590 688v-145h211v145h-211z" />
    <glyph glyph-name="glyph91" unicode="Z" 
d="M926 774v-106h-356v-66h371v-106h-371v-58h379v-106h-570l-82 -129v-164q0 -19 27 -19h207v-106h-293q-82 0 -82 63v148h-101v121h74q26 0 41 23l43 63h-162v106h379v58h-356v106h356v66h-344v106h344v43h140v-43h356zM789 278h145q-31 -102 -59 -128q-28 -29 -66 -29
h-100l43 -70q12 -19 25 -19h161v-114h-239q-26 0 -43 29l-211 335h164l37 -59h108q21 0 35 55z" />
    <glyph glyph-name="glyph92" unicode="[" 
d="M98 809h132v-105h102v97h129v-97h47v-122h-47v-308q0 -17 -9 -37l-89 -120l45 -69q14 -15 30 -16h58v-118h-117q-35 0 -55 26l-46 63l-50 -67q-20 -25 -56 -25h-121v117h62q15 1 31 16l52 73l-90 124q-8 20 -8 37v304h-39v122h39v105zM332 582h-102v-253q4 -19 13 -34
l39 -58l36 50q11 15 14 34v261zM527 789h403v-777q0 -94 -98 -94h-305v871zM766 43q31 0 31 32v589h-141v-621h110z" />
    <glyph glyph-name="glyph93" unicode="\" 
d="M94 797h797v-785q0 -94 -106 -94h-691v879zM715 47q35 0 35 32v214h-516v-246h481zM234 422h516v246h-516v-246z" />
    <glyph glyph-name="glyph94" unicode="]" 
d="M195 809h141l-70 -205v-693h-141v578h-66v136h54q18 0 28 30zM461 809h152l-30 -82h370v-125h-387v-156h352v-121h-352v-180h352v-121h-352v-113h-140v585h-125v137h82q16 0 26 29z" />
    <glyph glyph-name="glyph95" unicode="^" 
d="M98 590h239l58 223h140l-59 -223h426v-558q0 -118 -125 -118h-125v133h78q32 0 32 28v382h-322l-110 -409q-31 -134 -103 -134h-149v125h74q45 0 68 103l82 315h-204v133zM141 793h121l39 -152h-121zM461 395h129l27 -125q5 -24 16 -24h58v-117h-105q-56 0 -73 64z" />
    <glyph glyph-name="glyph96" unicode="_" 
d="M344 825h172l-47 -94h465v-719q0 -94 -106 -94h-765v813h234zM758 47q35 0 35 32v70h-590v-102h555zM203 270h590v105h-590v-105zM203 496h590v106h-590v-106z" />
    <glyph glyph-name="glyph97" unicode="`" 
d="M78 782h836v-371q0 -90 -90 -90h-594v-254q0 -24 28 -24h687v-121h-773q-90 0 -90 82v438h656q28 0 28 23v196h-688v121z" />
    <glyph glyph-name="glyph98" unicode="a" 
d="M184 805h160l-26 -35h627v-117h-712q-16 -20 -49 -20h-125v113h58q12 0 19 8zM941 594v-101h-74v-59h78v-105h-890v105h78v59h-74v101h74v27h125v-27h78v35h125v-35h78v35h125v-35h78v35h125v-35h74zM258 434h78v59h-78v-59zM461 434h78v59h-78v-59zM664 434h78v59h-78
v-59zM133 309h129l-14 -27h232l-27 -282q-7 -82 -98 -82h-300v118h80l-49 85h152l49 -85h6q26 0 27 23l16 113h-142q-20 -27 -57 -27h-86v105h39q14 0 21 14zM941 262v-105h-101v-86h109v-102h-109v-62h-133v62h-219v102l39 62h129l-39 -62h90v86h-203v105h203v47h133v-47
h101z" />
    <glyph glyph-name="glyph99" unicode="b" 
d="M270 809h183l-211 -242h524q15 0 15 12l-51 164h153l47 -145q4 -5 8 -31v-68q0 -65 -90 -65h-789v129zM78 364h836v-360q0 -93 -117 -93h-719v453zM719 36q39 0 39 31v172h-524v-203h485z" />
    <glyph glyph-name="glyph100" unicode="c" 
d="M230 805h153l-13 -23h548v-106l-63 -210q-23 -75 -117 -75h-633v121h273l-62 98h149l62 -98h161q30 0 36 19l46 133h-462q-24 -43 -78 -43h-144v110h86q20 0 28 17zM219 368h152l-21 -39h580v-106l-66 -225q-24 -80 -122 -80h-687v121h310l-64 110h152l65 -110h173
q32 0 39 22l47 150h-492q-23 -27 -66 -27h-160v113h101q20 0 28 16z" />
    <glyph glyph-name="glyph101" unicode="d" 
d="M926 762v-117h-360v-215h379v-117h-379v-402h-136v402h-375v117h375v215h-356v117h356v51h136v-51h360zM109 606h137l7 -31q6 -20 20 -20h82v-94h-136q-59 0 -83 69zM754 606h137q-29 -94 -55 -118q-27 -27 -63 -27h-140v94h90q18 0 31 51zM219 262h144l-53 -235
q-21 -81 -103 -81h-144v117h97q15 0 25 33zM629 262h144l42 -167q8 -32 25 -32h94v-117h-149q-69 0 -91 76z" />
    <glyph glyph-name="glyph102" unicode="e" 
d="M520 801v-117h-242l-79 -176h176q27 0 27 51v20h82v74h39q20 0 29 35l30 117h137l-23 -66h265v-121h-306l-6 -15q-22 -67 -75 -67h-54v-28q0 -53 -21 -81q-24 -40 -77 -40h-67v-98h153v-117h-153v-136h157v-122h-453v122h168v136h-161v117h161v98h-161v109q0 25 12 47
l66 141h-89v117h465zM824 567h141l-163 -339l81 -159q17 -37 39 -37h43v-118h-125q-31 0 -53 47l-56 118l-53 -111q-24 -54 -53 -54h-102v118h40q18 0 34 46l68 145l-134 285h129l72 -141z" />
    <glyph glyph-name="glyph103" unicode="f" 
d="M66 735h195l5 74h144l-5 -74h525v-711q0 -110 -133 -110h-195v125h148q31 0 31 28v539h-386l-36 -493q-15 -195 -93 -195h-211v121h125q32 0 41 109l31 458h-186v129z" />
    <glyph glyph-name="glyph104" unicode="g" 
d="M910 797v-121h-238v-265h273v-125h-273v-254q0 -114 -137 -114h-347v121h312q27 0 27 24v223h-476v125h476v265h-445v121h828z" />
    <glyph glyph-name="glyph105" unicode="h" 
d="M82 805h828v-363q0 -102 -133 -102h-695v117h648q32 0 32 28v35h-684v109h684v59h-680v117zM945 258v-117h-105v-199q0 -59 -86 -59h-211v102h133q19 0 19 19v137h-640v117h640v71h145v-71h105zM109 118h149l66 -91q21 -27 78 -27h47v-101h-121q-63 0 -108 55z" />
    <glyph glyph-name="glyph106" unicode="i" 
d="M809 774h140q-6 -106 -38 -148q-30 -40 -87 -40h-250v-550q0 -56 -35 -93q-29 -32 -82 -32h-125v128h74q28 0 28 63v484h-375v121h375v110h140v-110h192q30 0 43 67zM90 555h144l36 -98q8 -23 27 -23h98v-117h-161q-63 0 -89 86zM195 262h145l-58 -241q-22 -83 -110 -83
h-102v117h55q18 0 30 35zM773 559h153l-79 -182q-25 -60 -85 -60h-149v117h90q24 0 34 29zM641 262h144l47 -176q7 -31 31 -31h71v-117h-141q-65 0 -82 66z" />
    <glyph glyph-name="glyph107" unicode="j" 
d="M410 786v-122h-113v-207h105v-121h-105v-277h117v-121h-355v121h109v277h-105v121h105v207h-109v122h351zM934 805v-617h-90v-145q0 -19 23 -19h82v-113h-156q-70 0 -70 66v182l-126 -218q-14 -23 -38 -23h-118v118h59q9 1 19 13l109 212q7 13 9 28v336h121v-355h47v414
h-215v-496h-129v617h473z" />
    <glyph glyph-name="glyph108" unicode="k" 
d="M207 809h152l-101 -244v-654h-141v589h-66v133h62q20 0 32 29zM926 567v-133l-258 -32l39 -327q6 -36 31 -36h196v-125h-274q-81 0 -94 106l-40 364l-221 -28v133l207 26l-32 286h141l32 -268zM688 770h132v-39q0 -16 24 -16h47v-97h-125q-78 0 -78 58v94z" />
    <glyph glyph-name="glyph109" unicode="l" 
d="M395 809h128v-55q0 -109 -121 -109h-47v-70h188v-125h-188v-551h-121v440l-27 -334q-3 -37 -30 -55q-30 -20 -72 -20h-54v106h19q25 0 27 27l28 324h109v63h-179v125h179v70h-152v117h289q24 0 24 20v27zM355 387h114l31 -320q5 -31 23 -31h28v-106h-90q-65 0 -74 86z
M582 786h348v-782q0 -82 -98 -82h-250v864zM766 32q31 0 31 27v617h-86v-644h55z" />
    <glyph glyph-name="glyph110" unicode="m" 
d="M195 805h141l-94 -225v-669h-137v570h-50v129h35q22 0 35 32zM930 735v-121h-306l-36 -82h361v-121h-413l-36 -82h441v-79q0 -36 -19 -58l-144 -164h160v-114h-368q-24 0 -42 16l-215 188h214l85 -69l130 162h-426v63q0 19 12 47l41 90h-84v121h140l38 82h-150v121h206
l32 70h156l-30 -70h253z" />
    <glyph glyph-name="glyph111" unicode="n" 
d="M180 809h136l-140 -277h58l71 129h109v82h199v70h141v-70h199v-118h-285l-113 -168h250q11 0 11 8l-43 114h137l34 -100q3 -4 5 -22v-55q0 -54 -74 -54h-31v-289q0 -23 23 -23h94v-122h-172q-78 0 -78 71v363h-305v98l115 179h-99l-199 -363h172v-121h-313v98q0 23 16 46
l73 133h-124v94q0 16 9 33zM398 59v-117h-355v117h355zM523 289h133l-55 -278q-21 -97 -105 -97h-82v122h39q18 0 30 42z" />
    <glyph glyph-name="glyph112" unicode="o" 
d="M168 813h152l27 -70h308l21 62h152l-21 -62h111v-114h-344v-58h332v-114h-332v-58h332v-113h-332v-63h348v-113h-267l58 -62q23 -16 60 -16h176v-118h-226q-87 0 -125 43l-94 114l-113 -115q-37 -42 -114 -42h-226v118h176q38 0 61 16l60 62h-270v113h356v63h-340v113
h340v58h-340v114h340v58h-352v114h112z" />
    <glyph glyph-name="glyph113" unicode="p" 
d="M113 801h157l37 -121h124l-33 121h157l33 -121h109l41 121h160l-41 -121h88v-168h-140v55h-610v-55h-140v168h96zM125 493h734v-141l-70 -66h156v-129h-226v-172q0 -71 -94 -71h-441v114h355q27 0 27 19v110h-511v129h545l84 85h-559v122z" />
    <glyph glyph-name="glyph114" unicode="q" 
d="M945 746v-117h-564l-31 -54h576v-563q0 -101 -125 -101h-309v113h262q31 0 31 23v39h-504v-175h-136v425h-94v133h78q20 0 34 29l70 131h-167v117h229l33 63h156l-36 -63h497zM281 200h504v70h-504v-70zM281 383h504v74h-503l-1 -2v-72z" />
    <glyph glyph-name="glyph115" unicode="r" 
d="M449 731v-113h-129v-692h-113v585l-25 -435q-3 -50 -29 -73q-28 -26 -67 -26h-39v105h4q25 0 26 39l28 458h102v39h-141v113h141v86h113v-86h129zM320 579h106l27 -391q5 -31 24 -31h7v-106h-66q-61 0 -70 86zM703 789h195v-726q0 -27 24 -27h23v-122h-93q-90 0 -90 106
v641h-117v-645q-3 -100 -94 -102h-90v122h39q12 0 12 19v734h191z" />
    <glyph glyph-name="glyph116" unicode="s" 
d="M207 809h141l-162 -281h62l45 70h148l-222 -355h140v-122h-293v122l108 168h-119v117zM383 55v-117h-332v117h332zM949 743v-114h-211v-125h184v-117h-512v117h188v125h-211v114h211v66h140v-66h211zM426 329h480v-321q0 -86 -70 -86h-410v407zM754 39q12 0 12 26v146
h-200v-172h188z" />
    <glyph glyph-name="glyph117" unicode="t" 
d="M230 797h551l78 -124q21 -44 43 -44h39v-117h-101q-41 0 -68 38l-92 130h-348l-97 -130q-28 -38 -71 -38h-109v117h47q24 0 46 44zM918 477v-117h-844v117h844zM90 305h808v-293q0 -86 -105 -86h-703v379zM719 43q35 0 35 28v117h-520v-145h485z" />
    <glyph glyph-name="glyph118" unicode="u" 
d="M531 770v-98h-160v-43h141v-93h-141v-40h160v-101h-160v-82q0 -59 -74 -59h-231v102h161q15 0 15 19v20h-179v101h179v40h-164v93h164v43h-179v98h179v39h129v-39h160zM680 704v-102h105q35 0 35 19v83h-140zM680 504v-109h129q11 0 11 23v71q0 15 -49 15h-91zM680 297
v-47h-110v-19h344v-219q0 -90 -121 -90h-94v102h47q31 0 31 23v67h-207v-219h-136v219h-211v-192h-137v309h348v58h125v512h379v-187q0 -40 -47 -59q47 -25 47 -66v-125q0 -64 -75 -67h-183z" />
    <glyph glyph-name="glyph119" unicode="v" 
d="M457 746v-683h23v-113h-433v113h39v683h371zM211 63h121v129h-121v-129zM211 297h121v117h-121v-117zM211 520h121v117h-121v-117zM473 696h116l5 121h133l-6 -121h217v-676q0 -109 -114 -109h-94v125h51q28 0 28 27v496h-95l-23 -500q-4 -74 -35 -110q-34 -38 -82 -38
h-82v121h43q27 0 28 61l20 466h-110v137z" />
    <glyph glyph-name="glyph120" unicode="w" 
d="M941 797v-113h-375v-39h360v-332q0 -94 -94 -94h-266v-15q0 -14 -8 -30l-75 -90l53 -34q36 -22 81 -22h332v-114h-422q-39 0 -68 21l-63 45l-37 -45q-18 -21 -50 -21h-258v114h199q12 1 25 12l13 17l-179 127h219l38 -24l45 59h-333v426h352v39h-371v113h882zM766 329
q27 0 27 35v19h-227v-54h200zM430 329v54h-219v-54h219zM211 481h219v55h-219v-55zM566 536v-55h227v55h-227z" />
    <glyph glyph-name="glyph121" unicode="x" 
d="M207 805h145v-62h156v-122h-457v122h156v62zM133 610h137l-61 -123q-19 -41 -64 -41h-98v113h47q13 0 19 12zM277 606h137l14 -36q5 -11 17 -11h59v-113h-125q-29 0 -50 40zM344 422h144l-127 -244l78 -123q19 -31 41 -31h24v-110h-102q-35 0 -59 40l-53 87l-27 -51
q-35 -76 -115 -76h-101v118h27q50 0 76 51l55 97l-150 246h148l75 -118zM605 805h141l-27 -74h234v-110h-273l-7 -21q-23 -68 -79 -68h-74v113h19q22 0 32 37zM789 563h137l-124 -347l78 -146q17 -34 38 -34h27v-118h-109q-33 0 -55 44l-41 80l-19 -53q-23 -71 -80 -71h-106
v114h35q17 0 27 22l58 154l-139 273h144l58 -107z" />
    <glyph glyph-name="glyph122" unicode="y" 
d="M145 789h148l-18 -85h174v117h153v-117h332v-129h-332v-188h312v-125h-312v-219h347v-129h-886v129h386v219h-308v125h308v188h-200l-11 -55q-21 -94 -105 -94h-86v133h35q16 0 26 39z" />
    <glyph glyph-name="glyph123" unicode="z" 
d="M449 762v-129h-379v129h379zM469 516v-129h-195l-79 -348h106q23 0 23 20v113h125v-160q0 -28 -27 -56q-32 -34 -78 -34h-285v86q0 23 10 63l69 316h-87v129h418zM492 735h93l5 74h137l-6 -74h209v-711q0 -102 -117 -102h-106v114h63q27 0 27 23v555h-84l-39 -553
q-10 -147 -61 -147h-129v110h39q21 0 24 104l31 486h-86v121z" />
    <glyph glyph-name="glyph124" unicode="{" 
d="M453 711v-109h-133v-691h-121v691h-133v109h133v98h121v-98h133zM94 532h97l-22 -480q-2 -47 -21 -70q-21 -25 -50 -25h-43v118h4q16 0 17 35zM332 532h98l19 -426q0 -16 8 -16h20v-117h-59q-61 0 -66 86zM500 797h445v-781q0 -98 -93 -98h-352v879zM793 36q23 0 23 39
v101h-187v-140h164zM629 289h187v145h-187v-145zM629 547h187v133h-187v-133z" />
    <glyph glyph-name="glyph125" unicode="|" 
d="M938 793v-113h-512l-28 -86h469l-109 -551h183v-121h-882v121h552l19 90h-505v125l141 422h-203v113h875zM658 258l47 215h-346l-69 -215h368z" />
    <glyph glyph-name="glyph126" unicode="}" 
 />
    <glyph glyph-name="glyph127" unicode="~" 
 />
    <glyph glyph-name="glyph128" 
 />
    <glyph glyph-name="glyph129" 
 />
    <glyph glyph-name="glyph130" 
 />
    <glyph glyph-name="glyph131" 
 />
    <glyph glyph-name="glyph132" 
 />
    <glyph glyph-name="glyph133" 
 />
    <glyph glyph-name="glyph134" unicode="&#x85;" 
 />
    <glyph glyph-name="glyph135" 
 />
    <glyph glyph-name="glyph136" 
 />
    <glyph glyph-name="glyph137" 
 />
    <glyph glyph-name="glyph138" 
 />
    <glyph glyph-name="glyph139" 
 />
    <glyph glyph-name="glyph140" 
 />
    <glyph glyph-name="glyph141" 
 />
    <glyph glyph-name="glyph142" 
 />
    <glyph glyph-name="glyph143" 
 />
    <glyph glyph-name="glyph144" 
 />
    <glyph glyph-name="glyph145" 
 />
    <glyph glyph-name="glyph146" 
 />
    <glyph glyph-name="glyph147" 
 />
    <glyph glyph-name="glyph148" 
 />
    <glyph glyph-name="glyph149" 
 />
    <glyph glyph-name="glyph150" 
 />
    <glyph glyph-name="glyph151" 
 />
    <glyph glyph-name="glyph152" 
 />
    <glyph glyph-name="glyph153" 
 />
    <glyph glyph-name="glyph154" 
 />
    <glyph glyph-name="glyph155" 
 />
    <glyph glyph-name="glyph156" 
 />
    <glyph glyph-name="glyph157" 
 />
    <glyph glyph-name="glyph158" 
 />
    <glyph glyph-name="glyph159" 
 />
    <glyph glyph-name="glyph160" 
 />
    <glyph glyph-name="glyph161" unicode="&#xa0;" 
 />
    <glyph glyph-name="glyph162" unicode="&#xa1;" 
 />
    <glyph glyph-name="glyph163" unicode="&#xa2;" 
 />
    <glyph glyph-name="glyph164" unicode="&#xa3;" 
 />
    <glyph glyph-name="glyph165" unicode="&#xa4;" 
 />
    <glyph glyph-name="glyph166" unicode="&#xa5;" 
 />
    <glyph glyph-name="glyph167" unicode="&#xa6;" 
 />
    <glyph glyph-name="glyph168" unicode="&#xa7;" 
 />
    <glyph glyph-name="glyph169" unicode="&#xa8;" 
 />
    <glyph glyph-name="glyph170" unicode="&#xa9;" 
 />
    <glyph glyph-name="glyph171" unicode="&#xaa;" 
 />
    <glyph glyph-name="glyph172" unicode="&#xab;" 
 />
    <glyph glyph-name="glyph173" unicode="&#xac;" 
 />
    <glyph glyph-name="glyph174" unicode="&#xad;" 
 />
    <glyph glyph-name="glyph175" unicode="&#xae;" 
 />
    <glyph glyph-name="glyph176" unicode="&#xaf;" 
 />
    <glyph glyph-name="glyph177" unicode="&#xb0;" 
 />
    <glyph glyph-name="glyph178" unicode="&#xb1;" 
 />
    <glyph glyph-name="glyph179" unicode="&#xb2;" 
 />
    <glyph glyph-name="glyph180" unicode="&#xb3;" 
 />
    <glyph glyph-name="glyph181" unicode="&#xb4;" 
 />
    <glyph glyph-name="glyph182" unicode="&#xb5;" 
 />
    <glyph glyph-name="glyph183" unicode="&#xb6;" 
 />
    <glyph glyph-name="glyph184" unicode="&#xb7;" 
 />
    <glyph glyph-name="glyph185" unicode="&#xb8;" 
 />
    <glyph glyph-name="glyph186" unicode="&#xb9;" 
 />
    <glyph glyph-name="glyph187" unicode="&#xba;" 
 />
    <glyph glyph-name="glyph188" unicode="&#xbb;" 
 />
    <glyph glyph-name="glyph189" unicode="&#xbc;" 
 />
    <glyph glyph-name="glyph190" unicode="&#xbd;" 
 />
    <glyph glyph-name="glyph191" unicode="&#xbe;" 
 />
    <glyph glyph-name="glyph192" unicode="&#xbf;" 
 />
    <glyph glyph-name="glyph193" unicode="&#xc0;" 
 />
    <glyph glyph-name="glyph194" unicode="&#xc1;" 
 />
    <glyph glyph-name="glyph195" unicode="&#xc2;" 
 />
    <glyph glyph-name="glyph196" unicode="&#xc3;" 
 />
    <glyph glyph-name="glyph197" unicode="&#xc4;" 
 />
    <glyph glyph-name="glyph198" unicode="&#xc5;" 
 />
    <glyph glyph-name="glyph199" unicode="&#xc6;" 
 />
    <glyph glyph-name="glyph200" unicode="&#xc7;" 
 />
    <glyph glyph-name="glyph201" unicode="&#xc8;" 
 />
    <glyph glyph-name="glyph202" unicode="&#xc9;" 
 />
    <glyph glyph-name="glyph203" unicode="&#xca;" 
 />
    <glyph glyph-name="glyph204" unicode="&#xcb;" 
 />
    <glyph glyph-name="glyph205" unicode="&#xcc;" 
 />
    <glyph glyph-name="glyph206" unicode="&#xcd;" 
 />
    <glyph glyph-name="glyph207" unicode="&#xce;" 
 />
    <glyph glyph-name="glyph208" unicode="&#xcf;" 
 />
    <glyph glyph-name="glyph209" unicode="&#xd0;" 
 />
    <glyph glyph-name="glyph210" unicode="&#xd1;" 
 />
    <glyph glyph-name="glyph211" unicode="&#xd2;" 
 />
    <glyph glyph-name="glyph212" unicode="&#xd3;" 
 />
    <glyph glyph-name="glyph213" unicode="&#xd4;" 
 />
    <glyph glyph-name="glyph214" unicode="&#xd5;" 
 />
    <glyph glyph-name="glyph215" unicode="&#xd6;" 
 />
    <glyph glyph-name="glyph216" unicode="&#xd7;" 
 />
    <glyph glyph-name="glyph217" unicode="&#xd8;" 
 />
    <glyph glyph-name="glyph218" unicode="&#xd9;" 
 />
    <glyph glyph-name="glyph219" unicode="&#xda;" 
 />
    <glyph glyph-name="glyph220" unicode="&#xdb;" 
 />
    <glyph glyph-name="glyph221" unicode="&#xdc;" 
 />
    <glyph glyph-name="glyph222" unicode="&#xdd;" 
 />
    <glyph glyph-name="glyph223" unicode="&#xde;" 
 />
    <glyph glyph-name="glyph224" unicode="&#xdf;" 
 />
    <glyph glyph-name="glyph225" unicode="&#xe0;" 
 />
    <glyph glyph-name="glyph226" unicode="&#xe1;" 
 />
    <glyph glyph-name="glyph227" unicode="&#xe2;" 
 />
    <glyph glyph-name="glyph228" unicode="&#xe3;" 
 />
    <glyph glyph-name="glyph229" unicode="&#xe4;" 
 />
    <glyph glyph-name="glyph230" unicode="&#xe5;" 
 />
    <glyph glyph-name="glyph231" unicode="&#xe6;" 
 />
    <glyph glyph-name="glyph232" unicode="&#xe7;" 
 />
    <glyph glyph-name="glyph233" unicode="&#xe8;" 
 />
    <glyph glyph-name="glyph234" unicode="&#xe9;" 
 />
    <glyph glyph-name="glyph235" unicode="&#xea;" 
 />
    <glyph glyph-name="glyph236" unicode="&#xeb;" 
 />
    <glyph glyph-name="glyph237" unicode="&#xec;" 
 />
    <glyph glyph-name="glyph238" unicode="&#xed;" 
 />
    <glyph glyph-name="glyph239" unicode="&#xee;" 
 />
    <glyph glyph-name="glyph240" unicode="&#xef;" 
 />
    <glyph glyph-name="glyph241" unicode="&#xf0;" 
 />
    <glyph glyph-name="glyph242" unicode="&#xf1;" 
 />
    <glyph glyph-name="glyph243" unicode="&#xf2;" 
 />
    <glyph glyph-name="glyph244" unicode="&#xf3;" 
 />
    <glyph glyph-name="glyph245" unicode="&#xf4;" 
 />
    <glyph glyph-name="glyph246" unicode="&#xf5;" 
 />
    <glyph glyph-name="glyph247" unicode="&#xf6;" 
 />
    <glyph glyph-name="glyph248" unicode="&#xf7;" 
 />
    <glyph glyph-name="glyph249" unicode="&#xf8;" 
 />
    <glyph glyph-name="glyph250" unicode="&#xf9;" 
 />
    <glyph glyph-name="glyph251" unicode="&#xfa;" 
 />
    <glyph glyph-name="glyph252" unicode="&#xfb;" 
 />
    <glyph glyph-name="glyph253" unicode="&#xfc;" 
 />
    <glyph glyph-name="glyph254" unicode="&#xfd;" 
 />
    <glyph glyph-name="glyph255" unicode="&#xfe;" 
 />
    <glyph glyph-name="glyph256" 
 />
  </font>
</defs>
</svg>
